<svg width="24" height="24" viewBox="0 0 24 24" fill="none" xmlns="http://www.w3.org/2000/svg">
<path fill-rule="evenodd" clip-rule="evenodd" d="M16.7092 1.37764C16.7045 1.26956 16.6765 1.16376 16.6271 1.06753C16.5777 0.971287 16.508 0.88688 16.4229 0.820098C16.3378 0.753315 16.2392 0.705738 16.134 0.680631C16.0287 0.655524 15.9193 0.653482 15.8132 0.674644C15.3132 0.774644 13.6812 1.18064 12.3932 2.46864C11.7352 3.12664 11.3712 3.95664 11.1732 4.71264C11.0782 5.08076 11.0133 5.456 10.9792 5.83464L10.7362 5.73064C10.0432 5.43464 9.14622 5.09064 8.12622 5.09064C7.03422 5.09064 5.48422 5.53464 4.20422 6.79064C2.90622 8.06464 1.94922 10.1086 1.94922 13.1906C1.94922 14.9226 2.81522 17.4406 3.98222 19.4856C4.57222 20.5186 5.26722 21.4806 6.01722 22.1896C6.74622 22.8776 7.63422 23.4276 8.60222 23.4026C9.32222 23.3996 10.0522 23.1166 10.6192 22.8966L10.6692 22.8766C11.3232 22.6236 11.7892 22.4526 12.1802 22.4526C12.5542 22.4526 13.0242 22.6236 13.6882 22.8786L13.7372 22.8966C14.3132 23.1176 15.0562 23.4026 15.7692 23.4026C16.3082 23.4026 16.9312 23.1146 17.4772 22.7756C18.1335 22.3582 18.7366 21.8626 19.2732 21.2996C20.4102 20.1176 21.4902 18.4286 21.4482 16.6206C21.445 16.4818 21.4033 16.3466 21.3277 16.23C21.2521 16.1135 21.1457 16.0202 21.0202 15.9606C20.4913 15.6923 20.0193 15.3242 19.6302 14.8766C19.1572 14.3336 18.8082 13.6646 18.7862 12.8886C18.7623 11.9094 18.9979 10.9413 19.4692 10.0826C19.8912 9.31264 20.3692 8.87264 20.5912 8.75564C20.6861 8.70588 20.7692 8.63635 20.835 8.55176C20.9007 8.46717 20.9476 8.36947 20.9724 8.26524C20.9973 8.16101 20.9995 8.05267 20.9789 7.94752C20.9583 7.84237 20.9155 7.74284 20.8532 7.65564C20.5112 7.17564 19.8612 6.54364 19.0952 6.03464C18.3382 5.53064 17.3512 5.06964 16.3412 5.08964C16.1646 5.09431 15.9912 5.10664 15.8212 5.12664C16.1912 4.57664 16.4072 3.89464 16.5332 3.29664C16.6674 2.66616 16.7269 2.02204 16.7102 1.37764M13.4552 3.52864C13.9962 2.98764 14.6322 2.64564 15.1592 2.43464C15.1356 2.62015 15.1046 2.80463 15.0662 2.98764C14.9352 3.60964 14.7292 4.12964 14.4762 4.42564C13.9962 4.98464 13.3522 5.59464 12.4882 5.83564C12.5162 5.59864 12.5602 5.34564 12.6262 5.09164C12.7812 4.49664 13.0462 3.93864 13.4552 3.52864ZM16.3722 6.58864C16.9372 6.57864 17.6142 6.84964 18.2662 7.28364C18.6102 7.51164 18.9142 7.76364 19.1562 7.99564C18.7992 8.35364 18.4482 8.82564 18.1552 9.36164C17.5558 10.4541 17.2566 11.6859 17.2882 12.9316C17.3222 14.1516 17.8722 15.1416 18.5002 15.8616C18.9602 16.3886 19.4802 16.7956 19.9302 17.0716C19.8032 18.1666 19.1062 19.3116 18.1932 20.2596C17.7435 20.7336 17.2374 21.1507 16.6862 21.5016C16.1782 21.8176 15.8622 21.9026 15.7702 21.9026C15.3702 21.9026 14.8822 21.7286 14.2262 21.4776L14.1462 21.4476C13.5822 21.2306 12.8602 20.9536 12.1812 20.9536C11.4812 20.9536 10.7632 21.2326 10.2012 21.4506L10.1292 21.4786C9.48122 21.7286 9.00222 21.9026 8.59222 21.9026H8.56922C8.19322 21.9146 7.67522 21.6906 7.04922 21.0996C6.44122 20.5246 5.83222 19.6966 5.28622 18.7416C4.18222 16.8076 3.45022 14.5546 3.45022 13.1916C3.45022 10.4346 4.29522 8.80364 5.25522 7.86164C6.23322 6.90164 7.39622 6.58964 8.12822 6.58964C8.82322 6.58964 9.48122 6.82464 10.1482 7.10964L10.4182 7.22664C10.6562 7.32964 10.9032 7.43664 11.1272 7.52164C11.4392 7.63864 11.8062 7.75064 12.1812 7.75064C12.5562 7.75064 12.9272 7.64564 13.2512 7.53064C13.4922 7.44564 13.7562 7.33664 14.0112 7.23164L14.2632 7.12764C14.9562 6.84564 15.6452 6.60464 16.3722 6.58964" fill="white"/>
</svg>
