<svg viewBox="0 0 24 25" xmlns="http://www.w3.org/2000/svg">
<path d="M12.0002 13.675L15.9002 9.775C16.0835 9.59167 16.3169 9.5 16.6002 9.5C16.8835 9.5 17.1169 9.59167 17.3002 9.775C17.4835 9.95833 17.5752 10.1917 17.5752 10.475C17.5752 10.7583 17.4835 10.9917 17.3002 11.175L12.7002 15.775C12.6002 15.875 12.4919 15.9458 12.3752 15.9875C12.2585 16.0292 12.1335 16.05 12.0002 16.05C11.8669 16.05 11.7419 16.0292 11.6252 15.9875C11.5085 15.9458 11.4002 15.875 11.3002 15.775L6.7002 11.175C6.51686 10.9917 6.42519 10.7583 6.42519 10.475C6.42519 10.1917 6.51686 9.95833 6.7002 9.775C6.88353 9.59167 7.11686 9.5 7.4002 9.5C7.68353 9.5 7.91686 9.59167 8.10019 9.775L12.0002 13.675Z" />
</svg>
