<svg width="40" height="41" viewBox="0 0 40 41" fill="none" xmlns="http://www.w3.org/2000/svg">
<path d="M32.5 12.2125V4.25C32.5 3.91848 32.3683 3.60054 32.1339 3.36612C31.8995 3.1317 31.5815 3 31.25 3H27.5V5.5H30V13.9C30 13.9 33.75 14.5337 33.75 19.25V35.5H30V38H35C35.3315 38 35.6495 37.8683 35.8839 37.6339C36.1183 37.3995 36.25 37.0815 36.25 36.75V19.25C36.25 14.935 33.8337 12.97 32.5 12.2125ZM23.75 12.2125V4.25C23.75 3.91848 23.6183 3.60054 23.3839 3.36612C23.1495 3.1317 22.8315 3 22.5 3H18.75V5.5H21.25V13.9C21.25 13.9 25 14.5337 25 19.25V35.5H21.25V38H26.25C26.5815 38 26.8995 37.8683 27.1339 37.6339C27.3683 37.3995 27.5 37.0815 27.5 36.75V19.25C27.5 14.935 25.0837 12.97 23.75 12.2125ZM15 12.2125V4.25C15 3.91848 14.8683 3.60054 14.6339 3.36612C14.3995 3.1317 14.0815 3 13.75 3H8.75C8.41848 3 8.10054 3.1317 7.86612 3.36612C7.6317 3.60054 7.5 3.91848 7.5 4.25V12.2125C6.16625 12.97 3.75 14.935 3.75 19.25V36.75C3.75 37.0815 3.8817 37.3995 4.11612 37.6339C4.35054 37.8683 4.66848 38 5 38H17.5C17.8315 38 18.1495 37.8683 18.3839 37.6339C18.6183 37.3995 18.75 37.0815 18.75 36.75V19.25C18.75 14.935 16.3337 12.97 15 12.2125ZM16.25 35.5H6.25V19.25C6.25 14.535 10 13.9 10 13.9V5.5H12.5V13.9C12.5 13.9 16.25 14.535 16.25 19.25V35.5Z" fill="#DC5F00"/>
</svg>
