<svg width="40" height="41" viewBox="0 0 40 41" fill="none" xmlns="http://www.w3.org/2000/svg">
<path d="M21.0388 13.4173C21.0388 14.5673 20.5721 15.5007 19.9971 15.5007C19.4221 15.5007 18.9554 14.5673 18.9554 13.4173C18.9554 12.2673 19.4221 11.334 19.9971 11.334C20.5721 11.334 21.0388 12.2673 21.0388 13.4173ZM27.2688 14.5673C26.6938 15.5623 25.8238 16.1373 25.3254 15.8507C24.8271 15.5623 24.8904 14.5207 25.4654 13.5257C26.0404 12.529 26.9104 11.954 27.4088 12.2423C27.9071 12.5307 27.8438 13.5707 27.2688 14.5673ZM14.6688 15.8507C14.1704 16.1373 13.3021 15.5623 12.7254 14.5673C12.1504 13.5707 12.0871 12.529 12.5854 12.2407C13.0854 11.954 13.9554 12.529 14.5304 13.524C15.1054 14.5207 15.1671 15.5623 14.6688 15.8507Z" fill="#DC5F00"/>
<path fill-rule="evenodd" clip-rule="evenodd" d="M5.83428 17.1673V21.4173C4.89237 21.6086 4.04555 22.1196 3.43729 22.8638C2.82904 23.6079 2.49677 24.5395 2.49677 25.5007C2.49677 26.4618 2.82904 27.3934 3.43729 28.1375C4.04555 28.8817 4.89237 29.3927 5.83428 29.584V30.5007C5.83428 31.0478 5.94205 31.5896 6.15144 32.0952C6.36084 32.6007 6.66775 33.06 7.05466 33.4469C7.44157 33.8338 7.9009 34.1408 8.40643 34.3501C8.91195 34.5595 9.45377 34.6673 10.0009 34.6673H30.0009C30.5481 34.6673 31.0899 34.5595 31.5955 34.3501C32.101 34.1408 32.5603 33.8338 32.9472 33.4469C33.3341 33.06 33.641 32.6007 33.8504 32.0952C34.0598 31.5896 34.1676 31.0478 34.1676 30.5007V29.584C35.1095 29.3927 35.9563 28.8817 36.5646 28.1375C37.1728 27.3934 37.5051 26.4618 37.5051 25.5007C37.5051 24.5395 37.1728 23.6079 36.5646 22.8638C35.9563 22.1196 35.1095 21.6086 34.1676 21.4173V17.1673C34.1676 14.084 32.5009 11.3573 29.9293 9.42898C27.3593 7.50232 23.8459 6.33398 20.0009 6.33398C16.1559 6.33398 12.6426 7.50065 10.0726 9.42898C7.50261 11.3573 5.83428 14.084 5.83428 17.1673ZM7.50094 17.1673C7.50094 14.7273 8.81761 12.454 11.0726 10.7623C13.3276 9.07065 16.4843 8.00065 20.0009 8.00065C23.5176 8.00065 26.6743 9.07065 28.9293 10.7623C31.1843 12.454 32.5009 14.7273 32.5009 17.1673V18.0007H7.50094V17.1673ZM7.50094 21.334V19.6673H32.5009V21.334H26.6676C26.4466 21.334 26.2346 21.4218 26.0784 21.5781C25.9221 21.7343 25.8343 21.9463 25.8343 22.1673V23.834C25.8343 24.276 25.6587 24.6999 25.3461 25.0125C25.0336 25.3251 24.6096 25.5007 24.1676 25.5007C23.7256 25.5007 23.3017 25.3251 22.9891 25.0125C22.6765 24.6999 22.5009 24.276 22.5009 23.834V22.1673C22.5009 21.9463 22.4131 21.7343 22.2569 21.5781C22.1006 21.4218 21.8886 21.334 21.6676 21.334H7.50094ZM6.66761 23.0007C6.00457 23.0007 5.36868 23.264 4.89984 23.7329C4.431 24.2017 4.16761 24.8376 4.16761 25.5007C4.16761 26.1637 4.431 26.7996 4.89984 27.2684C5.36868 27.7373 6.00457 28.0007 6.66761 28.0007H33.3343C33.9973 28.0007 34.6332 27.7373 35.102 27.2684C35.5709 26.7996 35.8343 26.1637 35.8343 25.5007C35.8343 24.8376 35.5709 24.2017 35.102 23.7329C34.6332 23.264 33.9973 23.0007 33.3343 23.0007H27.5009V23.834C27.5009 24.718 27.1498 25.5659 26.5246 26.191C25.8995 26.8161 25.0517 27.1673 24.1676 27.1673C23.2836 27.1673 22.4357 26.8161 21.8106 26.191C21.1855 25.5659 20.8343 24.718 20.8343 23.834V23.0007H6.66761ZM7.50094 30.5007V29.6673H32.5009V30.5007C32.5009 31.1637 32.2375 31.7996 31.7687 32.2684C31.2999 32.7373 30.664 33.0007 30.0009 33.0007H10.0009C9.3379 33.0007 8.70202 32.7373 8.23317 32.2684C7.76433 31.7996 7.50094 31.1637 7.50094 30.5007Z" fill="#DC5F00"/>
</svg>
