<svg viewBox="0 0 21 16" xmlns="http://www.w3.org/2000/svg">
<path d="M2.75 16C2.2 16 1.72917 15.8042 1.3375 15.4125C0.945833 15.0208 0.75 14.55 0.75 14V2C0.75 1.45 0.945833 0.979167 1.3375 0.5875C1.72917 0.195833 2.2 0 2.75 0H4.075C4.625 0 5.09583 0.195833 5.4875 0.5875C5.87917 0.979167 6.075 1.45 6.075 2V14C6.075 14.55 5.87917 15.0208 5.4875 15.4125C5.09583 15.8042 4.625 16 4.075 16H2.75ZM10.1 16C9.55 16 9.07917 15.8042 8.6875 15.4125C8.29583 15.0208 8.1 14.55 8.1 14V2C8.1 1.45 8.29583 0.979167 8.6875 0.5875C9.07917 0.195833 9.55 0 10.1 0H11.425C11.975 0 12.4458 0.195833 12.8375 0.5875C13.2292 0.979167 13.425 1.45 13.425 2V14C13.425 14.55 13.2292 15.0208 12.8375 15.4125C12.4458 15.8042 11.975 16 11.425 16H10.1ZM17.425 16C16.875 16 16.4042 15.8042 16.0125 15.4125C15.6208 15.0208 15.425 14.55 15.425 14V2C15.425 1.45 15.6208 0.979167 16.0125 0.5875C16.4042 0.195833 16.875 0 17.425 0H18.75C19.3 0 19.7708 0.195833 20.1625 0.5875C20.5542 0.979167 20.75 1.45 20.75 2V14C20.75 14.55 20.5542 15.0208 20.1625 15.4125C19.7708 15.8042 19.3 16 18.75 16H17.425Z" />
</svg>
