<svg width="24" height="24" viewBox="0 0 24 24" fill="none" xmlns="http://www.w3.org/2000/svg">
<path d="M20.9193 10.6523C19.5748 9.88418 18.2337 9.10984 16.8963 8.32932L16.8933 8.32732L4.64032 1.25232C4.43146 1.12469 4.19722 1.04424 3.95402 1.0166C3.71081 0.988965 3.4645 1.01481 3.23232 1.09232L3.15632 1.12232C3.09716 1.14178 3.03937 1.16516 2.98332 1.19232C2.7492 1.3325 2.55713 1.53312 2.42728 1.77312C2.29742 2.01312 2.23457 2.28365 2.24532 2.55632V21.5423C2.23841 21.7962 2.29878 22.0475 2.42031 22.2705C2.54185 22.4935 2.72021 22.6805 2.93732 22.8123C2.9871 22.838 3.03895 22.8594 3.09232 22.8763C3.12076 22.8893 3.14979 22.901 3.17932 22.9113C3.32249 22.963 3.47313 22.9911 3.62532 22.9943C3.91766 22.9897 4.20388 22.9098 4.45632 22.7623L16.8943 15.5803L20.9153 13.2583C21.1636 13.1334 21.3732 12.9432 21.5215 12.7082C21.6698 12.4732 21.7514 12.2022 21.7573 11.9243C21.7451 11.6566 21.6609 11.3972 21.5136 11.1733C21.3663 10.9495 21.1603 10.7695 20.9193 10.6523ZM4.24432 19.8383V4.10132L12.1843 11.9603L4.24432 19.8383ZM9.26232 17.6763L13.6063 13.3663L14.7563 14.5053L9.26232 17.6763ZM13.6043 10.5513L9.20632 6.19932L14.7603 9.40632L13.6043 10.5513ZM16.5513 13.4683L15.0253 11.9583L16.5533 10.4423C17.2733 10.8613 18.3963 11.5123 19.1693 11.9573L16.5513 13.4683Z" fill="white"/>
</svg>
