<svg viewBox="0 0 20 20" fill="none" xmlns="http://www.w3.org/2000/svg">
<path d="M19.8055 8.0415H19V8H10V12H15.6515C14.827 14.3285 12.6115 16 10 16C6.6865 16 4 13.3135 4 10C4 6.6865 6.6865 4 10 4C11.5295 4 12.921 4.577 13.9805 5.5195L16.809 2.691C15.023 1.0265 12.634 0 10 0C4.4775 0 0 4.4775 0 10C0 15.5225 4.4775 20 10 20C15.5225 20 20 15.5225 20 10C20 9.3295 19.931 8.675 19.8055 8.0415Z" fill="#FFC107"/>
<path d="M1.15332 5.3455L4.43882 7.755C5.32782 5.554 7.48082 4 10.0003 4C11.5298 4 12.9213 4.577 13.9808 5.5195L16.8093 2.691C15.0233 1.0265 12.6343 0 10.0003 0C6.15932 0 2.82832 2.1685 1.15332 5.3455Z" fill="#FF3D00"/>
<path d="M9.99918 20.0003C12.5822 20.0003 14.9292 19.0118 16.7037 17.4043L13.6087 14.7853C12.6047 15.5458 11.3567 16.0003 9.99918 16.0003C7.39818 16.0003 5.18968 14.3418 4.35768 12.0273L1.09668 14.5398C2.75168 17.7783 6.11268 20.0003 9.99918 20.0003Z" fill="#4CAF50"/>
<path d="M19.8055 8.0415H19V8H10V12H15.6515C15.2555 13.1185 14.536 14.083 13.608 14.7855L13.6095 14.7845L16.7045 17.4035C16.4855 17.6025 20 15 20 10C20 9.3295 19.931 8.675 19.8055 8.0415Z" fill="#1976D2"/>
</svg>
