<svg width="40" height="41" viewBox="0 0 40 41" fill="none" xmlns="http://www.w3.org/2000/svg">
<path d="M11.57 38.1936V30.6936H9.80831C8.87498 30.6936 8.08609 30.3714 7.44164 29.7269C6.7972 29.0825 6.47498 28.2936 6.47498 27.3603C6.47498 26.4269 6.7972 25.638 7.44164 24.9936C8.08609 24.3491 8.87498 24.0269 9.80831 24.0269H11.57V21.3336H6.47498V14.6669H11.57V11.9736H9.80831C8.87498 11.9736 8.08609 11.6519 7.44164 11.0086C6.7972 10.3641 6.47498 9.57526 6.47498 8.64193C6.47498 7.70859 6.7972 6.9197 7.44164 6.27526C8.08609 5.63082 8.87498 5.30859 9.80831 5.30859H11.57V2.80859H13.045V5.30859H14.8083C15.7416 5.30859 16.5305 5.63082 17.175 6.27526C17.8194 6.9197 18.1416 7.70804 18.1416 8.64026C18.1416 9.57248 17.8194 10.3614 17.175 11.0069C16.5305 11.6525 15.7416 11.9747 14.8083 11.9736H13.045V14.6669H18.1416V21.3336H13.0433V24.0269H14.805C15.7383 24.0269 16.5272 24.3486 17.1716 24.9919C17.8161 25.6364 18.1383 26.4253 18.1383 27.3586C18.1383 28.2919 17.8161 29.0808 17.1716 29.7253C16.5272 30.3697 15.7383 30.6919 14.805 30.6919H13.045V38.1919L11.57 38.1936ZM26.955 38.1936V30.6936H25.1933C24.26 30.6936 23.4711 30.3714 22.8266 29.7269C22.1822 29.0825 21.86 28.2936 21.86 27.3603C21.86 26.4269 22.1822 25.638 22.8266 24.9936C23.4711 24.3491 24.26 24.0269 25.1933 24.0269H26.955V21.3336H21.86V14.6669H26.955V11.9736H25.1933C24.26 11.9736 23.4711 11.6519 22.8266 11.0086C22.1822 10.3641 21.86 9.57526 21.86 8.64193C21.86 7.70859 22.1822 6.9197 22.8266 6.27526C23.4711 5.63082 24.26 5.30859 25.1933 5.30859H26.955V2.80859H28.43V5.30859H30.1933C31.1266 5.30859 31.9155 5.63082 32.56 6.27526C33.2044 6.9197 33.5266 7.70804 33.5266 8.64026C33.5266 9.57248 33.2044 10.3614 32.56 11.0069C31.9155 11.6525 31.1266 11.9747 30.1933 11.9736H28.43V14.6669H33.5266V21.3336H28.43V24.0269H30.1916C31.125 24.0269 31.9139 24.3486 32.5583 24.9919C33.2028 25.6364 33.525 26.4253 33.525 27.3586C33.525 28.2919 33.2028 29.0808 32.5583 29.7253C31.9139 30.3697 31.125 30.6919 30.1916 30.6919H28.43V38.1919L26.955 38.1936ZM9.80831 10.3069H14.8083C15.265 10.3069 15.6566 10.143 15.9833 9.81526C16.31 9.48859 16.4733 9.09637 16.4733 8.63859C16.4733 8.18193 16.31 7.79026 15.9833 7.46359C15.6566 7.13582 15.2644 6.97193 14.8066 6.97193H9.80664C9.34998 6.97193 8.95831 7.13582 8.63164 7.46359C8.30498 7.79137 8.14109 8.18304 8.13998 8.63859C8.13886 9.09415 8.30275 9.48637 8.63164 9.81526C8.96053 10.1441 9.3522 10.3075 9.80664 10.3053M25.1916 10.3053H30.1916C30.6494 10.3053 31.0416 10.1419 31.3683 9.81526C31.695 9.48859 31.8583 9.09637 31.8583 8.63859C31.8583 8.18193 31.695 7.79026 31.3683 7.46359C31.0416 7.13693 30.6494 6.97304 30.1916 6.97193H25.1916C24.735 6.97193 24.3428 7.13582 24.015 7.46359C23.6883 7.79026 23.525 8.18193 23.525 8.63859C23.525 9.09637 23.6883 9.48859 24.015 9.81526C24.3428 10.1419 24.735 10.3053 25.1916 10.3053ZM8.14164 19.6669H16.475V16.3336H8.14164V19.6669ZM23.525 19.6669H31.8583V16.3336H23.525V19.6669ZM9.80831 29.0269H14.8083C15.265 29.0269 15.6572 28.863 15.985 28.5353C16.3116 28.2086 16.475 27.8164 16.475 27.3586C16.475 26.9019 16.3116 26.5097 15.985 26.1819C15.6572 25.8553 15.265 25.6919 14.8083 25.6919H9.80831C9.35053 25.6919 8.95831 25.8553 8.63164 26.1819C8.30498 26.5097 8.14164 26.9019 8.14164 27.3586C8.14164 27.8164 8.30498 28.2086 8.63164 28.5353C8.95831 28.8619 9.35053 29.0269 9.80831 29.0269ZM25.1916 29.0253H30.1916C30.6494 29.0253 31.0416 28.8619 31.3683 28.5353C31.695 28.2086 31.8583 27.8164 31.8583 27.3586C31.8583 26.9008 31.695 26.5086 31.3683 26.1819C31.0416 25.8553 30.6494 25.6919 30.1916 25.6919H25.1916C24.735 25.6919 24.3428 25.8553 24.015 26.1819C23.6883 26.5097 23.525 26.9019 23.525 27.3586C23.525 27.8164 23.6883 28.2086 24.015 28.5353C24.3428 28.8619 24.735 29.0253 25.1916 29.0253Z" fill="#DC5F00"/>
</svg>
