<svg viewBox="0 0 200 200" fill="none" xmlns="http://www.w3.org/2000/svg">
<g clip-path="url(#clip0_12_12)">
<mask id="mask0_12_12" style="mask-type:luminance" maskUnits="userSpaceOnUse" x="0" y="0" width="200" height="200">
<path d="M200 0H0V200H200V0Z" fill="white"/>
</mask>
<g mask="url(#mask0_12_12)">
<path d="M169.99 0H30.01C13.4359 0 0 13.4359 0 30.01V149.99C0 166.564 13.4359 180 30.01 180H169.99C186.564 180 200 166.564 200 149.99V30.01C200 13.4359 186.564 0 169.99 0Z" fill="#DC5F00"/>
<path d="M182 92H69V93H182V92Z" fill="white"/>
<path d="M27.12 29.7599V46.0799H46.32V53.5199H27.12V70.5599H48.72V77.9999H18V22.3199H48.72V29.7599H27.12ZM59.3131 55.7599C59.3131 51.3332 60.2198 47.4132 62.0331 43.9999C63.8998 40.5866 66.4065 37.9466 69.5531 36.0799C72.7531 34.1599 76.2731 33.1999 80.1131 33.1999C83.5798 33.1999 86.5931 33.8932 89.1531 35.2799C91.7665 36.6132 93.8465 38.2932 95.3931 40.3199V33.9199H104.593V77.9999H95.3931V71.4399C93.8465 73.52 91.7398 75.2532 89.0731 76.6399C86.4065 78.0266 83.3665 78.7199 79.9531 78.7199C76.1665 78.7199 72.6998 77.7599 69.5531 75.8399C66.4065 73.8666 63.8998 71.1466 62.0331 67.6799C60.2198 64.1599 59.3131 60.1866 59.3131 55.7599ZM95.3931 55.9199C95.3931 52.8799 94.7531 50.2399 93.4731 47.9999C92.2465 45.7599 90.6198 44.0532 88.5931 42.8799C86.5665 41.7066 84.3798 41.1199 82.0331 41.1199C79.6865 41.1199 77.4998 41.7066 75.4731 42.8799C73.4465 43.9999 71.7931 45.6799 70.5131 47.9199C69.2865 50.1066 68.6731 52.7199 68.6731 55.7599C68.6731 58.7999 69.2865 61.4666 70.5131 63.7599C71.7931 66.0532 73.4465 67.8132 75.4731 69.0399C77.5531 70.2132 79.7398 70.7999 82.0331 70.7999C84.3798 70.7999 86.5665 70.2132 88.5931 69.0399C90.6198 67.8666 92.2465 66.1599 93.4731 63.9199C94.7531 61.6266 95.3931 58.9599 95.3931 55.9199ZM129.612 41.3599V65.7599C129.612 67.4132 129.985 68.6132 130.732 69.3599C131.532 70.0532 132.865 70.3999 134.732 70.3999H140.332V77.9999H133.132C129.025 77.9999 125.879 77.0399 123.692 75.1199C121.505 73.2 120.412 70.0799 120.412 65.7599V41.3599H115.212V33.9199H120.412V22.9599H129.612V33.9199H140.332V41.3599H129.612ZM167.137 78.7199C163.671 78.7199 160.551 78.1066 157.777 76.8799C155.057 75.5999 152.897 73.8932 151.297 71.7599C149.697 69.5732 148.844 67.1466 148.737 64.4799H158.177C158.337 66.3466 159.217 67.9199 160.817 69.1999C162.471 70.4266 164.524 71.0399 166.977 71.0399C169.537 71.0399 171.511 70.5599 172.897 69.5999C174.337 68.5866 175.057 67.3066 175.057 65.7599C175.057 64.1066 174.257 62.8799 172.657 62.0799C171.111 61.2799 168.631 60.3999 165.217 59.4399C161.911 58.5332 159.217 57.6532 157.137 56.7999C155.057 55.9466 153.244 54.6399 151.697 52.8799C150.204 51.1199 149.457 48.7999 149.457 45.9199C149.457 43.5732 150.151 41.4399 151.537 39.5199C152.924 37.5466 154.897 35.9999 157.457 34.8799C160.071 33.7599 163.057 33.1999 166.417 33.1999C171.431 33.1999 175.457 34.4799 178.497 37.0399C181.591 39.5466 183.244 42.9866 183.457 47.3599H174.337C174.177 45.3866 173.377 43.8132 171.937 42.6399C170.497 41.4666 168.551 40.8799 166.097 40.8799C163.697 40.8799 161.857 41.3332 160.577 42.2399C159.297 43.1466 158.657 44.3466 158.657 45.8399C158.657 47.0132 159.084 47.9999 159.937 48.7999C160.791 49.5999 161.831 50.2399 163.057 50.7199C164.284 51.1466 166.097 51.7066 168.497 52.3999C171.697 53.2532 174.311 54.1332 176.337 55.0399C178.417 55.8932 180.204 57.1732 181.697 58.8799C183.191 60.5866 183.964 62.8532 184.017 65.6799C184.017 68.1866 183.324 70.4266 181.937 72.3999C180.551 74.3732 178.577 75.9199 176.017 77.0399C173.511 78.1599 170.551 78.7199 167.137 78.7199Z" fill="#EEEEEE"/>
<path d="M27.12 99.7599V116.08H46.32V123.52H27.12V140.56H48.72V148H18V92.3199H48.72V99.7599H27.12ZM53.7131 125.76C53.7131 121.333 54.6198 117.413 56.4331 114C58.2998 110.587 60.8065 107.947 63.9531 106.08C67.1531 104.16 70.6731 103.2 74.5131 103.2C77.9798 103.2 80.9931 103.893 83.5531 105.28C86.1665 106.613 88.2465 108.293 89.7931 110.32V103.92H98.9931V148H89.7931V141.44C88.2465 143.52 86.1398 145.253 83.4731 146.64C80.8065 148.027 77.7665 148.72 74.3531 148.72C70.5665 148.72 67.0998 147.76 63.9531 145.84C60.8065 143.867 58.2998 141.147 56.4331 137.68C54.6198 134.16 53.7131 130.187 53.7131 125.76ZM89.7931 125.92C89.7931 122.88 89.1531 120.24 87.8731 118C86.6465 115.76 85.0198 114.053 82.9931 112.88C80.9665 111.707 78.7798 111.12 76.4331 111.12C74.0865 111.12 71.8998 111.707 69.8731 112.88C67.8465 114 66.1931 115.68 64.9131 117.92C63.6865 120.107 63.0731 122.72 63.0731 125.76C63.0731 128.8 63.6865 131.467 64.9131 133.76C66.1931 136.053 67.8465 137.813 69.8731 139.04C71.9531 140.213 74.1398 140.8 76.4331 140.8C78.7798 140.8 80.9665 140.213 82.9931 139.04C85.0198 137.867 86.6465 136.16 87.8731 133.92C89.1531 131.627 89.7931 128.96 89.7931 125.92ZM123.772 148.72C120.305 148.72 117.185 148.107 114.412 146.88C111.692 145.6 109.532 143.893 107.932 141.76C106.332 139.573 105.479 137.147 105.372 134.48H114.812C114.972 136.347 115.852 137.92 117.452 139.2C119.105 140.427 121.159 141.04 123.612 141.04C126.172 141.04 128.145 140.56 129.532 139.6C130.972 138.587 131.692 137.307 131.692 135.76C131.692 134.107 130.892 132.88 129.292 132.08C127.745 131.28 125.265 130.4 121.852 129.44C118.545 128.533 115.852 127.653 113.772 126.8C111.692 125.947 109.879 124.64 108.332 122.88C106.839 121.12 106.092 118.8 106.092 115.92C106.092 113.573 106.785 111.44 108.172 109.52C109.559 107.547 111.532 106 114.092 104.88C116.705 103.76 119.692 103.2 123.052 103.2C128.065 103.2 132.092 104.48 135.132 107.04C138.225 109.547 139.879 112.987 140.092 117.36H130.972C130.812 115.387 130.012 113.813 128.572 112.64C127.132 111.467 125.185 110.88 122.732 110.88C120.332 110.88 118.492 111.333 117.212 112.24C115.932 113.147 115.292 114.347 115.292 115.84C115.292 117.013 115.719 118 116.572 118.8C117.425 119.6 118.465 120.24 119.692 120.72C120.919 121.147 122.732 121.707 125.132 122.4C128.332 123.253 130.945 124.133 132.972 125.04C135.052 125.893 136.839 127.173 138.332 128.88C139.825 130.587 140.599 132.853 140.652 135.68C140.652 138.187 139.959 140.427 138.572 142.4C137.185 144.373 135.212 145.92 132.652 147.04C130.145 148.16 127.185 148.72 123.772 148.72ZM186.986 103.92L159.946 168.72H150.506L159.466 147.28L142.106 103.92H152.266L164.666 137.52L177.546 103.92H186.986Z" fill="#EEEEEE"/>
<path d="M11.9839 187.768V189.96H7.40788V192.328H10.8319V194.456H7.40788V199H4.67188V187.768H11.9839ZM18.7339 199.112C17.6779 199.112 16.7072 198.867 15.8219 198.376C14.9472 197.885 14.2486 197.203 13.7259 196.328C13.2139 195.443 12.9579 194.451 12.9579 193.352C12.9579 192.253 13.2139 191.267 13.7259 190.392C14.2486 189.517 14.9472 188.835 15.8219 188.344C16.7072 187.853 17.6779 187.608 18.7339 187.608C19.7899 187.608 20.7552 187.853 21.6299 188.344C22.5152 188.835 23.2086 189.517 23.7099 190.392C24.2219 191.267 24.4779 192.253 24.4779 193.352C24.4779 194.451 24.2219 195.443 23.7099 196.328C23.1979 197.203 22.5046 197.885 21.6299 198.376C20.7552 198.867 19.7899 199.112 18.7339 199.112ZM18.7339 196.616C19.6299 196.616 20.3446 196.317 20.8779 195.72C21.4219 195.123 21.6939 194.333 21.6939 193.352C21.6939 192.36 21.4219 191.571 20.8779 190.984C20.3446 190.387 19.6299 190.088 18.7339 190.088C17.8272 190.088 17.1019 190.381 16.5579 190.968C16.0246 191.555 15.7579 192.349 15.7579 193.352C15.7579 194.344 16.0246 195.139 16.5579 195.736C17.1019 196.323 17.8272 196.616 18.7339 196.616ZM31.312 199.112C30.256 199.112 29.2853 198.867 28.4 198.376C27.5253 197.885 26.8267 197.203 26.304 196.328C25.792 195.443 25.536 194.451 25.536 193.352C25.536 192.253 25.792 191.267 26.304 190.392C26.8267 189.517 27.5253 188.835 28.4 188.344C29.2853 187.853 30.256 187.608 31.312 187.608C32.368 187.608 33.3333 187.853 34.208 188.344C35.0933 188.835 35.7867 189.517 36.288 190.392C36.8 191.267 37.056 192.253 37.056 193.352C37.056 194.451 36.8 195.443 36.288 196.328C35.776 197.203 35.0827 197.885 34.208 198.376C33.3333 198.867 32.368 199.112 31.312 199.112ZM31.312 196.616C32.208 196.616 32.9227 196.317 33.456 195.72C34 195.123 34.272 194.333 34.272 193.352C34.272 192.36 34 191.571 33.456 190.984C32.9227 190.387 32.208 190.088 31.312 190.088C30.4053 190.088 29.68 190.381 29.136 190.968C28.6027 191.555 28.336 192.349 28.336 193.352C28.336 194.344 28.6027 195.139 29.136 195.736C29.68 196.323 30.4053 196.616 31.312 196.616ZM42.7861 187.768C43.9701 187.768 45.0048 188.003 45.8901 188.472C46.7755 188.941 47.4581 189.603 47.9381 190.456C48.4288 191.299 48.6741 192.275 48.6741 193.384C48.6741 194.483 48.4288 195.459 47.9381 196.312C47.4581 197.165 46.7701 197.827 45.8741 198.296C44.9888 198.765 43.9595 199 42.7861 199H38.5781V187.768H42.7861ZM42.6101 196.632C43.6448 196.632 44.4501 196.349 45.0261 195.784C45.6021 195.219 45.8901 194.419 45.8901 193.384C45.8901 192.349 45.6021 191.544 45.0261 190.968C44.4501 190.392 43.6448 190.104 42.6101 190.104H41.3141V196.632H42.6101ZM57.8018 187.768C58.9858 187.768 60.0204 188.003 60.9058 188.472C61.7911 188.941 62.4738 189.603 62.9538 190.456C63.4444 191.299 63.6898 192.275 63.6898 193.384C63.6898 194.483 63.4444 195.459 62.9538 196.312C62.4738 197.165 61.7858 197.827 60.8898 198.296C60.0044 198.765 58.9751 199 57.8018 199H53.5938V187.768H57.8018ZM57.6258 196.632C58.6604 196.632 59.4658 196.349 60.0418 195.784C60.6178 195.219 60.9058 194.419 60.9058 193.384C60.9058 192.349 60.6178 191.544 60.0418 190.968C59.4658 190.392 58.6604 190.104 57.6258 190.104H56.3298V196.632H57.6258ZM67.9548 189.96V192.232H71.6188V194.344H67.9548V196.808H72.0988V199H65.2188V187.768H72.0988V189.96H67.9548ZM76.611 196.888H80.195V199H73.875V187.768H76.611V196.888ZM84.236 187.768V199H81.5V187.768H84.236ZM96.7628 187.768L92.7788 199H89.3548L85.3708 187.768H88.2828L91.0668 196.248L93.8668 187.768H96.7628ZM100.642 189.96V192.232H104.306V194.344H100.642V196.808H104.786V199H97.9063V187.768H104.786V189.96H100.642ZM112.29 199L109.954 194.76H109.298V199H106.562V187.768H111.154C112.04 187.768 112.792 187.923 113.41 188.232C114.04 188.541 114.509 188.968 114.818 189.512C115.128 190.045 115.282 190.643 115.282 191.304C115.282 192.051 115.069 192.717 114.642 193.304C114.226 193.891 113.608 194.307 112.786 194.552L115.378 199H112.29ZM109.298 192.824H110.994C111.496 192.824 111.869 192.701 112.114 192.456C112.37 192.211 112.498 191.864 112.498 191.416C112.498 190.989 112.37 190.653 112.114 190.408C111.869 190.163 111.496 190.04 110.994 190.04H109.298V192.824ZM126.632 187.768L122.744 195.288V199H120.008V195.288L116.12 187.768H119.224L121.4 192.472L123.56 187.768H126.632ZM135.189 199.112C134.367 199.112 133.631 198.979 132.981 198.712C132.33 198.445 131.807 198.051 131.413 197.528C131.029 197.005 130.826 196.376 130.805 195.64H133.717C133.759 196.056 133.903 196.376 134.149 196.6C134.394 196.813 134.714 196.92 135.109 196.92C135.514 196.92 135.834 196.829 136.069 196.648C136.303 196.456 136.421 196.195 136.421 195.864C136.421 195.587 136.325 195.357 136.133 195.176C135.951 194.995 135.722 194.845 135.445 194.728C135.178 194.611 134.794 194.477 134.293 194.328C133.567 194.104 132.975 193.88 132.517 193.656C132.058 193.432 131.663 193.101 131.333 192.664C131.002 192.227 130.837 191.656 130.837 190.952C130.837 189.907 131.215 189.091 131.973 188.504C132.73 187.907 133.717 187.608 134.933 187.608C136.17 187.608 137.167 187.907 137.925 188.504C138.682 189.091 139.087 189.912 139.141 190.968H136.181C136.159 190.605 136.026 190.323 135.781 190.12C135.535 189.907 135.221 189.8 134.837 189.8C134.506 189.8 134.239 189.891 134.037 190.072C133.834 190.243 133.733 190.493 133.733 190.824C133.733 191.187 133.903 191.469 134.245 191.672C134.586 191.875 135.119 192.093 135.845 192.328C136.57 192.573 137.157 192.808 137.605 193.032C138.063 193.256 138.458 193.581 138.789 194.008C139.119 194.435 139.285 194.984 139.285 195.656C139.285 196.296 139.119 196.877 138.789 197.4C138.469 197.923 137.999 198.339 137.381 198.648C136.762 198.957 136.031 199.112 135.189 199.112ZM143.705 189.96V192.232H147.369V194.344H143.705V196.808H147.849V199H140.969V187.768H147.849V189.96H143.705ZM155.353 199L153.017 194.76H152.361V199H149.625V187.768H154.217C155.102 187.768 155.854 187.923 156.473 188.232C157.102 188.541 157.571 188.968 157.881 189.512C158.19 190.045 158.345 190.643 158.345 191.304C158.345 192.051 158.131 192.717 157.705 193.304C157.289 193.891 156.67 194.307 155.849 194.552L158.441 199H155.353ZM152.361 192.824H154.057C154.558 192.824 154.931 192.701 155.177 192.456C155.433 192.211 155.561 191.864 155.561 191.416C155.561 190.989 155.433 190.653 155.177 190.408C154.931 190.163 154.558 190.04 154.057 190.04H152.361V192.824ZM170.606 187.768L166.622 199H163.198L159.214 187.768H162.126L164.91 196.248L167.71 187.768H170.606ZM174.486 187.768V199H171.75V187.768H174.486ZM176.005 193.368C176.005 192.259 176.245 191.272 176.725 190.408C177.205 189.533 177.871 188.856 178.725 188.376C179.589 187.885 180.565 187.64 181.653 187.64C182.986 187.64 184.127 187.992 185.077 188.696C186.026 189.4 186.661 190.36 186.981 191.576H183.973C183.749 191.107 183.429 190.749 183.013 190.504C182.607 190.259 182.143 190.136 181.621 190.136C180.778 190.136 180.095 190.429 179.573 191.016C179.05 191.603 178.789 192.387 178.789 193.368C178.789 194.349 179.05 195.133 179.573 195.72C180.095 196.307 180.778 196.6 181.621 196.6C182.143 196.6 182.607 196.477 183.013 196.232C183.429 195.987 183.749 195.629 183.973 195.16H186.981C186.661 196.376 186.026 197.336 185.077 198.04C184.127 198.733 182.986 199.08 181.653 199.08C180.565 199.08 179.589 198.84 178.725 198.36C177.871 197.869 177.205 197.192 176.725 196.328C176.245 195.464 176.005 194.477 176.005 193.368ZM191.392 189.96V192.232H195.056V194.344H191.392V196.808H195.536V199H188.656V187.768H195.536V189.96H191.392Z" fill="#DC5F00"/>
</g>
</g>
<defs>
<clipPath id="clip0_12_12">
<rect width="200" height="200" fill="white"/>
</clipPath>
</defs>
</svg>
