<svg viewBox="0 0 414 155" fill="none" xmlns="http://www.w3.org/2000/svg">
<rect width="201" height="154.935" rx="25" fill="#DC5F00"/>
<path d="M166.843 77.1436H72.5547V77.978H166.843V77.1436Z" fill="#FFFEFD"/>
<path d="M37.6098 25.208V38.8256H53.6305V45.0336H37.6098V59.252H55.6331V65.46H30V19H55.6331V25.208H37.6098ZM64.4721 46.9027C64.4721 43.209 65.2287 39.9381 66.7417 37.09C68.2993 34.2419 70.3909 32.0391 73.0164 30.4815C75.6865 28.8794 78.6237 28.0784 81.8278 28.0784C84.7204 28.0784 87.2348 28.6569 89.3709 29.814C91.5516 30.9265 93.2872 32.3283 94.5776 34.0194V28.6792H102.254V65.46H94.5776V59.9863C93.2872 61.7218 91.5292 63.1681 89.3041 64.3252C87.0792 65.4822 84.5425 66.0608 81.6943 66.0608C78.5348 66.0608 75.642 65.2597 73.0164 63.6577C70.3909 62.0111 68.2993 59.7415 66.7417 56.8489C65.2287 53.9117 64.4721 50.5964 64.4721 46.9027ZM94.5776 47.0362C94.5776 44.4996 94.0436 42.2967 92.9755 40.4277C91.9521 38.5586 90.5948 37.1345 88.9036 36.1555C87.2127 35.1764 85.388 34.6869 83.4299 34.6869C81.4719 34.6869 79.6472 35.1764 77.9561 36.1555C76.2652 37.09 74.8855 38.4918 73.8175 40.3609C72.794 42.1855 72.2822 44.3661 72.2822 46.9027C72.2822 49.4393 72.794 51.6644 73.8175 53.578C74.8855 55.4916 76.2652 56.9601 77.9561 57.9837C79.6917 58.9627 81.5163 59.4522 83.4299 59.4522C85.388 59.4522 87.2127 58.9627 88.9036 57.9837C90.5948 57.0046 91.9521 55.5806 92.9755 53.7115C94.0436 51.7979 94.5776 49.5728 94.5776 47.0362ZM123.13 34.8872V55.2468C123.13 56.6264 123.441 57.6277 124.065 58.2507C124.732 58.8292 125.845 59.1185 127.402 59.1185H132.075V65.46H126.067C122.641 65.46 120.015 64.659 118.191 63.0569C116.366 61.4548 115.454 58.8515 115.454 55.2468V34.8872H111.115V28.6792H115.454V19.534H123.13V28.6792H132.075V34.8872H123.13ZM154.442 66.0608C151.549 66.0608 148.946 65.549 146.632 64.5255C144.362 63.4574 142.56 62.0333 141.225 60.2533C139.89 58.4287 139.178 56.4039 139.089 54.1788H146.965C147.099 55.7363 147.833 57.0491 149.168 58.1172C150.548 59.1407 152.261 59.6525 154.308 59.6525C156.444 59.6525 158.091 59.252 159.248 58.4509C160.45 57.6054 161.05 56.5374 161.05 55.2468C161.05 53.8672 160.383 52.8437 159.048 52.1762C157.757 51.5086 155.688 50.7744 152.84 49.9733C150.081 49.2168 147.833 48.4825 146.098 47.7705C144.362 47.0585 142.849 45.9682 141.559 44.4996C140.312 43.031 139.689 41.0952 139.689 38.6921C139.689 36.734 140.268 34.9539 141.425 33.3519C142.582 31.7053 144.229 30.4147 146.365 29.4802C148.545 28.5457 151.037 28.0784 153.841 28.0784C158.024 28.0784 161.384 29.1464 163.921 31.2825C166.502 33.3741 167.881 36.2445 168.059 39.8936H160.45C160.316 38.2471 159.649 36.9343 158.447 35.9552C157.245 34.9762 155.621 34.4867 153.574 34.4867C151.571 34.4867 150.036 34.8649 148.968 35.6215C147.9 36.378 147.366 37.3793 147.366 38.6253C147.366 39.6044 147.722 40.4277 148.434 41.0952C149.146 41.7627 150.014 42.2967 151.037 42.6973C152.061 43.0533 153.574 43.5206 155.577 44.0991C158.247 44.8111 160.427 45.5454 162.118 46.3019C163.854 47.014 165.345 48.082 166.591 49.5061C167.837 50.9301 168.482 52.8215 168.527 55.1801C168.527 57.2716 167.948 59.1407 166.791 60.7873C165.634 62.4339 163.987 63.7244 161.851 64.659C159.76 65.5935 157.29 66.0608 154.442 66.0608Z" fill="#FFFEFD"/>
<path d="M37.6098 83.3945V97.0121H53.6305V103.22H37.6098V117.438H55.6331V123.646H30V77.1865H55.6331V83.3945H37.6098ZM59.7994 105.089C59.7994 101.395 60.556 98.1243 62.069 95.2766C63.6266 92.4287 65.7182 90.2258 68.3437 88.668C71.0139 87.0659 73.951 86.2649 77.1551 86.2649C80.0477 86.2649 82.5621 86.8431 84.6982 88.0005C86.8789 89.1127 88.6145 90.5145 89.9049 92.2059V86.8657H97.5815V123.646H89.9049V118.172C88.6145 119.908 86.8566 121.354 84.6314 122.511C82.4065 123.67 79.8698 124.247 77.0216 124.247C73.8621 124.247 70.9694 123.446 68.3437 121.844C65.7182 120.198 63.6266 117.929 62.069 115.035C60.556 112.098 59.7994 108.783 59.7994 105.089ZM89.9049 105.223C89.9049 102.686 89.3709 100.483 88.3028 98.6142C87.2794 96.7451 85.9221 95.3207 84.2309 94.342C82.54 93.3632 80.7153 92.8735 78.7572 92.8735C76.7992 92.8735 74.9746 93.3632 73.2834 94.342C71.5925 95.2766 70.2128 96.6784 69.1448 98.5474C68.1213 100.372 67.6095 102.553 67.6095 105.089C67.6095 107.626 68.1213 109.851 69.1448 111.764C70.2128 113.678 71.5925 115.146 73.2834 116.17C75.019 117.149 76.8436 117.638 78.7572 117.638C80.7153 117.638 82.54 117.149 84.2309 116.17C85.9221 115.192 87.2794 113.767 88.3028 111.898C89.3709 109.985 89.9049 107.759 89.9049 105.223ZM118.257 124.247C115.364 124.247 112.761 123.736 110.447 122.712C108.178 121.644 106.375 120.22 105.04 118.439C103.705 116.615 102.993 114.591 102.904 112.365H110.781C110.914 113.924 111.649 115.235 112.984 116.303C114.363 117.328 116.077 117.839 118.124 117.839C120.26 117.839 121.906 117.438 123.064 116.637C124.265 115.793 124.866 114.725 124.866 113.433C124.866 112.055 124.198 111.03 122.863 110.363C121.572 109.695 119.503 108.961 116.655 108.16C113.896 107.403 111.649 106.669 109.913 105.957C108.178 105.245 106.665 104.155 105.374 102.686C104.128 101.218 103.505 99.2817 103.505 96.8786C103.505 94.9202 104.083 93.1405 105.24 91.5384C106.398 89.892 108.044 88.6013 110.18 87.6667C112.361 86.7322 114.853 86.2649 117.657 86.2649C121.839 86.2649 125.2 87.333 127.736 89.4691C130.317 91.5609 131.697 94.4312 131.875 98.0802H124.265C124.132 96.4338 123.464 95.1205 122.262 94.1418C121.061 93.1629 119.436 92.6732 117.39 92.6732C115.387 92.6732 113.852 93.0511 112.784 93.808C111.716 94.5647 111.181 95.566 111.181 96.8119C111.181 97.7906 111.538 98.6142 112.25 99.2817C112.961 99.9493 113.829 100.483 114.853 100.884C115.877 101.24 117.39 101.707 119.392 102.286C122.062 102.997 124.242 103.732 125.934 104.488C127.669 105.2 129.16 106.268 130.406 107.693C131.652 109.117 132.298 111.008 132.342 113.366C132.342 115.459 131.764 117.328 130.607 118.973C129.45 120.62 127.803 121.911 125.667 122.845C123.575 123.78 121.105 124.247 118.257 124.247ZM171.003 86.8657L148.442 140.935H140.565L148.041 123.045L133.555 86.8657H142.034L152.379 114.902L163.127 86.8657H171.003Z" fill="#FFFEFD"/>
<path d="M240.31 18.9967V24.7307H228.226V30.9251H237.268V36.4916H228.226V48.3781H221V18.9967H240.31ZM258.137 48.671C255.348 48.671 252.784 48.0302 250.446 46.7457C248.136 45.4613 246.291 43.6774 244.911 41.3885C243.559 39.0735 242.883 36.4785 242.883 33.6037C242.883 30.7288 243.559 28.1496 244.911 25.8607C246.291 23.5718 248.136 21.7878 250.446 20.5034C252.784 19.219 255.348 18.5781 258.137 18.5781C260.925 18.5781 263.475 19.219 265.785 20.5034C268.123 21.7878 269.954 23.5718 271.278 25.8607C272.63 28.1496 273.306 30.7288 273.306 33.6037C273.306 36.4785 272.63 39.0735 271.278 41.3885C269.926 43.6774 268.095 45.4613 265.785 46.7457C263.475 48.0302 260.925 48.671 258.137 48.671ZM258.137 42.1418C260.503 42.1418 262.39 41.3597 263.799 39.798C265.235 38.2363 265.954 36.1699 265.954 33.6037C265.954 31.0088 265.235 28.9448 263.799 27.4093C262.39 25.8476 260.503 25.0655 258.137 25.0655C255.742 25.0655 253.827 25.8319 252.39 27.3674C250.982 28.9029 250.277 30.98 250.277 33.6037C250.277 36.1986 250.982 38.2782 252.39 39.8399C253.827 41.3754 255.742 42.1418 258.137 42.1418ZM291.354 48.671C288.565 48.671 286.002 48.0302 283.664 46.7457C281.354 45.4613 279.509 43.6774 278.129 41.3885C276.776 39.0735 276.1 36.4785 276.1 33.6037C276.1 30.7288 276.776 28.1496 278.129 25.8607C279.509 23.5718 281.354 21.7878 283.664 20.5034C286.002 19.219 288.565 18.5781 291.354 18.5781C294.143 18.5781 296.692 19.219 299.002 20.5034C301.34 21.7878 303.172 23.5718 304.495 25.8607C305.848 28.1496 306.524 30.7288 306.524 33.6037C306.524 36.4785 305.848 39.0735 304.495 41.3885C303.143 43.6774 301.312 45.4613 299.002 46.7457C296.692 48.0302 294.143 48.671 291.354 48.671ZM291.354 42.1418C293.721 42.1418 295.608 41.3597 297.016 39.798C298.453 38.2363 299.171 36.1699 299.171 33.6037C299.171 31.0088 298.453 28.9448 297.016 27.4093C295.608 25.8476 293.721 25.0655 291.354 25.0655C288.96 25.0655 287.044 25.8319 285.608 27.3674C284.199 28.9029 283.495 30.98 283.495 33.6037C283.495 36.1986 284.199 38.2782 285.608 39.8399C287.044 41.3754 288.96 42.1418 291.354 42.1418ZM321.656 18.9967C324.783 18.9967 327.516 19.6114 329.854 20.8382C332.192 22.0651 333.995 23.7968 335.263 26.0281C336.559 28.2332 337.206 30.7863 337.206 33.6874C337.206 36.5622 336.559 39.1153 335.263 41.3466C333.995 43.5779 332.177 45.3097 329.811 46.5365C327.473 47.7634 324.756 48.3781 321.656 48.3781H310.543V18.9967H321.656ZM321.192 42.1837C323.924 42.1837 326.051 41.4434 327.572 39.9654C329.093 38.4875 329.854 36.3948 329.854 33.6874C329.854 30.98 329.093 28.8741 327.572 27.3674C326.051 25.8607 323.924 25.1073 321.192 25.1073H317.769V42.1837H321.192Z" fill="#DC5F00"/>
<path d="M232.114 62.7773C235.241 62.7773 237.972 63.3921 240.31 64.6189C242.649 65.8457 244.452 67.5774 245.719 69.8088C247.015 72.0139 247.663 74.567 247.663 77.4681C247.663 80.3429 247.015 82.896 245.719 85.1273C244.452 87.3586 242.635 89.0903 240.269 90.3172C237.93 91.544 235.212 92.1588 232.114 92.1588H221V62.7773H232.114ZM231.648 85.9643C234.381 85.9643 236.508 85.224 238.029 83.7461C239.55 82.2682 240.31 80.1755 240.31 77.4681C240.31 74.7606 239.55 72.6548 238.029 71.1481C236.508 69.6414 234.381 68.888 231.648 68.888H228.226V85.9643H231.648ZM258.926 68.5113V74.4545H268.603V79.9792H258.926V86.4248H269.871V92.1588H251.701V62.7773H269.871V68.5113H258.926ZM281.787 86.634H291.252V92.1588H274.562V62.7773H281.787V86.634ZM301.924 62.7773V92.1588H294.698V62.7773H301.924ZM335.006 62.7773L324.485 92.1588H315.442L304.921 62.7773H312.611L319.963 84.9599L327.358 62.7773H335.006ZM345.251 68.5113V74.4545H354.928V79.9792H345.251V86.4248H356.195V92.1588H338.026V62.7773H356.195V68.5113H345.251ZM376.012 92.1588L369.843 81.0675H368.111V92.1588H360.885V62.7773H373.012C375.352 62.7773 377.338 63.1828 378.97 63.9911C380.634 64.7994 381.873 65.9164 382.688 67.3394C383.507 68.7336 383.914 70.2979 383.914 72.027C383.914 73.9811 383.351 75.7232 382.224 77.2587C381.125 78.7943 379.493 79.8825 377.322 80.5233L384.168 92.1588H376.012ZM368.111 76.0032H372.59C373.915 76.0032 374.901 75.6814 375.548 75.0405C376.224 74.3996 376.562 73.4919 376.562 72.32C376.562 71.203 376.224 70.3241 375.548 69.6832C374.901 69.0423 373.915 68.7206 372.59 68.7206H368.111V76.0032ZM413.888 62.7773L403.621 82.4486V92.1588H396.395V82.4486L386.127 62.7773H394.325L400.072 75.0824L405.775 62.7773H413.888Z" fill="#DC5F00"/>
<path d="M232.578 136.358C230.407 136.358 228.464 136.01 226.747 135.311C225.028 134.613 223.646 133.582 222.606 132.214C221.591 130.846 221.055 129.201 221 127.275H228.691C228.802 128.363 229.182 129.201 229.831 129.786C230.478 130.344 231.324 130.624 232.367 130.624C233.437 130.624 234.281 130.386 234.902 129.912C235.52 129.41 235.832 128.727 235.832 127.861C235.832 127.137 235.578 126.535 235.071 126.061C234.591 125.588 233.986 125.196 233.254 124.89C232.549 124.584 231.535 124.233 230.212 123.843C228.295 123.257 226.731 122.671 225.521 122.085C224.309 121.499 223.266 120.634 222.395 119.49C221.521 118.347 221.085 116.854 221.085 115.012C221.085 112.279 222.083 110.144 224.085 108.608C226.084 107.047 228.691 106.265 231.902 106.265C235.169 106.265 237.802 107.047 239.803 108.608C241.803 110.144 242.873 112.292 243.015 115.054H235.198C235.14 114.104 234.788 113.367 234.141 112.836C233.492 112.279 232.663 111.999 231.648 111.999C230.775 111.999 230.069 112.237 229.536 112.71C229 113.157 228.733 113.811 228.733 114.677C228.733 115.627 229.181 116.364 230.085 116.896C230.985 117.427 232.393 117.997 234.31 118.612C236.225 119.252 237.776 119.867 238.959 120.453C240.168 121.039 241.211 121.889 242.086 123.006C242.957 124.123 243.396 125.559 243.396 127.317C243.396 128.991 242.957 130.511 242.086 131.879C241.24 133.247 239.999 134.336 238.367 135.144C236.732 135.952 234.801 136.358 232.578 136.358ZM255.068 112.417V118.36H264.745V123.885H255.068V130.331H266.012V136.065H247.843V106.683H266.012V112.417H255.068ZM285.83 136.065L279.66 124.973H277.928V136.065H270.702V106.683H282.83C285.167 106.683 287.153 107.089 288.787 107.897C290.449 108.705 291.687 109.822 292.505 111.245C293.322 112.639 293.731 114.204 293.731 115.933C293.731 117.887 293.166 119.629 292.041 121.165C290.943 122.7 289.307 123.788 287.139 124.429L293.985 136.065H285.83ZM277.928 119.909H282.407C283.73 119.909 284.715 119.587 285.365 118.946C286.041 118.305 286.379 117.398 286.379 116.226C286.379 115.109 286.041 114.23 285.365 113.589C284.715 112.948 283.73 112.626 282.407 112.626H277.928V119.909ZM326.112 106.683L315.59 136.065H306.548L296.026 106.683H303.717L311.069 128.866L318.463 106.683H326.112ZM336.358 106.683V136.065H329.132V106.683H336.358ZM340.37 121.332C340.37 118.431 341.004 115.849 342.272 113.589C343.539 111.3 345.298 109.529 347.553 108.274C349.834 106.989 352.412 106.348 355.286 106.348C358.806 106.348 361.819 107.269 364.328 109.111C366.834 110.952 368.512 113.464 369.356 116.644H361.413C360.821 115.418 359.976 114.481 358.877 113.84C357.805 113.199 356.58 112.878 355.201 112.878C352.974 112.878 351.171 113.644 349.793 115.18C348.411 116.715 347.722 118.766 347.722 121.332C347.722 123.898 348.411 125.949 349.793 127.485C351.171 129.02 352.974 129.786 355.201 129.786C356.58 129.786 357.805 129.465 358.877 128.824C359.976 128.183 360.821 127.247 361.413 126.02H369.356C368.512 129.201 366.834 131.712 364.328 133.553C361.819 135.366 358.806 136.274 355.286 136.274C352.412 136.274 349.834 135.646 347.553 134.39C345.298 133.106 343.539 131.335 342.272 129.075C341.004 126.815 340.37 124.233 340.37 121.332ZM381.005 112.417V118.36H390.682V123.885H381.005V130.331H391.949V136.065H373.78V106.683H391.949V112.417H381.005Z" fill="#DC5F00"/>
</svg>
