<svg width="40" height="41" viewBox="0 0 40 41" fill="none" xmlns="http://www.w3.org/2000/svg">
<path d="M10.6265 8.15614C10.3959 7.92608 10.0835 7.79687 9.75779 7.79688C9.43206 7.79687 9.11963 7.92608 8.88904 8.15614L6.85279 10.1936C6.6231 10.4242 6.49414 10.7363 6.49414 11.0618C6.49414 11.3872 6.6231 11.6994 6.85279 11.9299L7.97404 13.0511C8.922 11.5256 10.1498 10.1931 11.5928 9.12364L10.6265 8.15614ZM31.374 28.9049C30.3046 30.3479 28.9721 31.5757 27.4465 32.5236L28.569 33.6449C28.7995 33.8742 29.1114 34.0029 29.4365 34.0029C29.7617 34.0029 30.0736 33.8742 30.304 33.6449L32.3415 31.6074C32.5708 31.3769 32.6996 31.065 32.6996 30.7399C32.6996 30.4148 32.5708 30.1029 32.3415 29.8724L31.374 28.9049ZM19.0765 15.8461C19.1064 15.9448 19.1164 16.0484 19.1062 16.1509C19.0959 16.2535 19.0656 16.353 19.0168 16.4438C18.968 16.5346 18.9018 16.6149 18.822 16.6801C18.7422 16.7452 18.6503 16.794 18.5515 16.8236L15.6853 17.6811C15.4857 17.7408 15.2706 17.7188 15.0873 17.6198C14.904 17.5209 14.7675 17.3532 14.7078 17.1536C14.6481 16.9541 14.6702 16.739 14.7691 16.5556C14.868 16.3723 15.0357 16.2358 15.2353 16.1761L18.1003 15.3186C18.5153 15.1936 18.9515 15.4311 19.0765 15.8461ZM24.2103 18.5611C24.4155 18.5949 24.5991 18.7085 24.7209 18.8771C24.8426 19.0457 24.8928 19.2557 24.8603 19.4611L24.3828 22.4149C24.3496 22.6204 24.2362 22.8044 24.0674 22.9263C23.8986 23.0482 23.6883 23.098 23.4828 23.0649C23.2772 23.0317 23.0933 22.9183 22.9714 22.7495C22.8495 22.5807 22.7996 22.3704 22.8328 22.1649L23.3103 19.2111C23.3441 19.0059 23.4576 18.8224 23.6263 18.7006C23.7949 18.5788 24.0048 18.5287 24.2103 18.5611ZM18.7865 26.0836C18.8598 26.1562 18.9467 26.2136 19.0422 26.2526C19.1377 26.2916 19.2399 26.3114 19.343 26.3108C19.4461 26.3103 19.5482 26.2895 19.6432 26.2495C19.7383 26.2096 19.8246 26.1513 19.8972 26.078C19.9697 26.0047 20.0271 25.9179 20.0661 25.8224C20.1051 25.7269 20.1249 25.6247 20.1244 25.5215C20.1238 25.4184 20.103 25.3164 20.0631 25.2213C20.0231 25.1262 19.9648 25.0399 19.8915 24.9674L17.7665 22.8624C17.6179 22.7198 17.4192 22.6413 17.2132 22.6439C17.0072 22.6465 16.8105 22.73 16.6655 22.8763C16.5205 23.0226 16.4388 23.22 16.4381 23.426C16.4374 23.632 16.5176 23.83 16.6615 23.9774L18.7865 26.0836ZM22.4865 16.2374C22.4109 16.3191 22.3195 16.3847 22.2178 16.4303C22.1162 16.4758 22.0064 16.5004 21.895 16.5025C21.7837 16.5046 21.673 16.4842 21.5698 16.4425C21.4665 16.4009 21.3727 16.3388 21.2939 16.26C21.2152 16.1812 21.1532 16.0873 21.1117 15.984C21.0701 15.8806 21.0498 15.77 21.052 15.6586C21.0543 15.5472 21.079 15.4375 21.1246 15.3359C21.1703 15.2343 21.236 15.143 21.3178 15.0674C21.4749 14.9222 21.6821 14.8435 21.8959 14.8478C22.1098 14.8521 22.3137 14.939 22.4648 15.0903C22.616 15.2417 22.7027 15.4456 22.7067 15.6595C22.7108 15.8733 22.6319 16.0805 22.4865 16.2374ZM24.0765 26.2861C24.0003 26.3657 23.909 26.4291 23.8079 26.4729C23.7068 26.5167 23.598 26.5398 23.4879 26.541C23.3778 26.5421 23.2685 26.5213 23.1665 26.4797C23.0646 26.4381 22.9719 26.3765 22.894 26.2986C22.8161 26.2208 22.7546 26.1281 22.713 26.0261C22.6714 25.9242 22.6505 25.8149 22.6517 25.7048C22.6529 25.5946 22.676 25.4858 22.7198 25.3848C22.7635 25.2837 22.827 25.1924 22.9065 25.1161C23.0636 24.971 23.2708 24.8923 23.4847 24.8966C23.6985 24.9008 23.9024 24.9878 24.0536 25.1391C24.2047 25.2904 24.2914 25.4944 24.2955 25.7082C24.2995 25.9221 24.2219 26.1292 24.0765 26.2861ZM13.0328 22.7474C13.1084 22.8292 13.1997 22.8949 13.3013 22.9406C13.4029 22.9862 13.5126 23.0109 13.624 23.0131C13.7354 23.0154 13.846 22.9951 13.9494 22.9535C14.0527 22.912 14.1466 22.85 14.2254 22.7712C14.3042 22.6925 14.3663 22.5987 14.4079 22.4954C14.4496 22.3921 14.47 22.2815 14.4679 22.1701C14.4658 22.0588 14.4412 21.949 14.3957 21.8474C14.3501 21.7457 14.2845 21.6543 14.2028 21.5786C14.0458 21.4333 13.8387 21.3544 13.6249 21.3584C13.411 21.3625 13.2071 21.4492 13.0557 21.6004C12.9044 21.7515 12.8175 21.9554 12.8132 22.1693C12.8089 22.3831 12.8876 22.5903 13.0328 22.7474Z" fill="#DC5F00"/>
<path d="M27.5751 28.0734C25.5664 30.082 22.842 31.2105 20.0013 31.2105C17.1606 31.2105 14.4362 30.082 12.4276 28.0734C10.4189 26.0647 9.29041 23.3403 9.29041 20.4996C9.29041 17.6589 10.4189 14.9345 12.4276 12.9259C14.4446 10.9596 17.155 9.86705 19.9718 9.88498C22.7886 9.90291 25.4849 11.0298 27.4768 13.0217C29.4686 15.0135 30.5955 17.7098 30.6134 20.5266C30.6314 23.3434 29.5389 26.0539 27.5726 28.0709M21.1026 29.2334C21.7088 29.3321 22.3101 29.4284 22.8551 29.2584C23.4126 29.0771 23.8426 28.6396 24.2701 28.2021C24.5301 27.9371 24.7888 27.6721 25.0763 27.4659C25.3601 27.2634 25.6863 27.0996 26.0138 26.9371C26.5638 26.6621 27.1163 26.3871 27.4638 25.9159C27.8051 25.4534 27.8951 24.8484 27.9863 24.2409C28.0401 23.8734 28.0951 23.5059 28.2051 23.1684C28.3088 22.8496 28.4738 22.5359 28.6401 22.2184C28.9263 21.6721 29.2188 21.1146 29.2188 20.4971C29.2188 19.8934 28.9276 19.3334 28.6413 18.7834C28.4693 18.4774 28.3234 18.1575 28.2051 17.8271C28.0951 17.4884 28.0388 17.1196 27.9826 16.7521C27.8901 16.1484 27.7976 15.5446 27.4651 15.0771C27.1213 14.5996 26.5651 14.3271 26.0126 14.0521C25.6868 13.9031 25.3737 13.728 25.0763 13.5284C24.7998 13.3114 24.5407 13.0732 24.3013 12.8159C23.8638 12.3709 23.4226 11.9196 22.8551 11.7346C22.3176 11.5596 21.7238 11.6584 21.1176 11.7584C20.7485 11.8292 20.3744 11.8701 19.9988 11.8809C19.6363 11.8809 19.2651 11.8209 18.8951 11.7609C18.2888 11.6634 17.6876 11.5659 17.1426 11.7359C16.5851 11.9171 16.1551 12.3559 15.7276 12.7921C15.4676 13.0571 15.2088 13.3221 14.9213 13.5296C14.6231 13.7297 14.3096 13.906 13.9838 14.0571C13.4338 14.3321 12.8813 14.6071 12.5338 15.0784C12.1926 15.5409 12.1026 16.1459 12.0113 16.7534C11.9682 17.1167 11.895 17.4759 11.7926 17.8271C11.6743 18.1549 11.5288 18.4723 11.3576 18.7759C11.0701 19.3221 10.7788 19.8809 10.7788 20.4971C10.7788 21.1009 11.0701 21.6609 11.3563 22.2109C11.5238 22.5321 11.6876 22.8484 11.7926 23.1684C11.9026 23.5059 11.9588 23.8746 12.0151 24.2421C12.1076 24.8471 12.2001 25.4496 12.5326 25.9171C12.8763 26.3946 13.4326 26.6684 13.9851 26.9421C14.3126 27.1021 14.6388 27.2634 14.9213 27.4671C15.1926 27.6671 15.4438 27.9221 15.6963 28.1796C16.1338 28.6234 16.5751 29.0746 17.1426 29.2596C17.6951 29.4346 18.2963 29.3346 18.9013 29.2346C19.2688 29.1746 19.6388 29.1134 19.9988 29.1134C20.3613 29.1134 20.7326 29.1734 21.1026 29.2334Z" fill="#DC5F00"/>
<path d="M5.27107 4.53959C6.46161 3.35111 8.0751 2.68359 9.75733 2.68359C11.4396 2.68359 13.053 3.35111 14.2436 4.53959L14.4936 4.78959C20.3373 2.74709 27.0948 4.05709 31.7686 8.73084C36.4423 13.4046 37.7523 20.1633 35.7098 26.0058L35.9598 26.2558C37.1483 27.4464 37.8158 29.0599 37.8158 30.7421C37.8158 32.4243 37.1483 34.0378 35.9598 35.2283L33.9223 37.2658C32.7317 38.4547 31.118 39.1225 29.4355 39.1225C27.7529 39.1225 26.1392 38.4547 24.9486 37.2658L24.2698 36.5858C21.4525 37.3338 18.4881 37.3284 15.6734 36.5702C12.8588 35.8121 10.2928 34.3277 8.23232 32.2658C6.17088 30.2054 4.6869 27.6395 3.92895 24.8251C3.17101 22.0108 3.16571 19.0467 3.91357 16.2296L3.23357 15.5508C2.04471 14.3603 1.37695 12.7465 1.37695 11.064C1.37695 9.38144 2.04471 7.76768 3.23357 6.57709L5.27107 4.53959ZM12.4761 6.30834C11.7544 5.58853 10.7766 5.18431 9.75733 5.18431C8.73801 5.18431 7.76029 5.58853 7.03857 6.30834L5.00107 8.34584C4.28127 9.06756 3.87704 10.0453 3.87704 11.0646C3.87704 12.0839 4.28127 13.0616 5.00107 13.7833L6.75482 15.5358C5.8036 18.0785 5.60388 20.8411 6.17947 23.4941C6.75506 26.1471 8.08168 28.5785 10.0011 30.4983C11.9209 32.4177 14.3523 33.7444 17.0053 34.32C19.6584 34.8955 22.4209 34.6958 24.9636 33.7446L26.7173 35.4983C27.439 36.2182 28.4168 36.6224 29.4361 36.6224C30.4554 36.6224 31.4331 36.2182 32.1548 35.4983L34.1923 33.4608C34.9121 32.7391 35.3164 31.7614 35.3164 30.7421C35.3164 29.7228 34.9121 28.7451 34.1923 28.0233L32.7648 26.5971C35.2773 21.3396 34.3548 14.8521 30.0011 10.4983C25.6473 6.14459 19.1598 5.22334 13.9036 7.73459L12.4761 6.30834Z" fill="#DC5F00"/>
</svg>
