<svg width="40" height="41" viewBox="0 0 40 41" fill="none" xmlns="http://www.w3.org/2000/svg">
<path d="M4.58334 34.4217L19.0467 6.58008C23.2677 8.77296 26.9348 11.8969 29.7708 15.7156C32.6068 19.5343 34.5374 23.9479 35.4167 28.6226L4.58334 34.4217Z" stroke="#DC5F00" stroke-linecap="round" stroke-linejoin="round"/>
<path d="M22.6638 28.5626C23.5705 28.5626 24.3055 27.8276 24.3055 26.921C24.3055 26.0143 23.5705 25.2793 22.6638 25.2793C21.7572 25.2793 21.0222 26.0143 21.0222 26.921C21.0222 27.8276 21.7572 28.5626 22.6638 28.5626Z" stroke="#DC5F00" stroke-linecap="round" stroke-linejoin="round"/>
<path d="M19.3158 20.7755C20.894 20.7755 22.1733 19.4962 22.1733 17.918C22.1733 16.3399 20.894 15.0605 19.3158 15.0605C17.7377 15.0605 16.4583 16.3399 16.4583 17.918C16.4583 19.4962 17.7377 20.7755 19.3158 20.7755Z" stroke="#DC5F00" stroke-linecap="round" stroke-linejoin="round"/>
<path d="M12.8897 29.8217C13.7881 29.8217 14.5163 29.0934 14.5163 28.195C14.5163 27.2966 13.7881 26.5684 12.8897 26.5684C11.9913 26.5684 11.263 27.2966 11.263 28.195C11.263 29.0934 11.9913 29.8217 12.8897 29.8217Z" stroke="#DC5F00" stroke-linecap="round" stroke-linejoin="round"/>
<path d="M17.6172 9.33789C21.3589 11.474 24.6143 14.3666 27.1755 17.8312C29.6845 21.2238 31.4901 25.0835 32.4864 29.1837" stroke="#DC5F00" stroke-linecap="round" stroke-linejoin="round"/>
</svg>
