<svg width="40" height="41" viewBox="0 0 40 41" fill="none" xmlns="http://www.w3.org/2000/svg">
<path d="M16.3016 5.52375C16.3524 6.14201 16.6198 6.72251 17.0566 7.16292C17.5548 7.66141 17.8347 8.33732 17.8347 9.04208C17.8347 9.74684 17.5548 10.4228 17.0566 10.9213C16.5582 11.4198 16.2782 12.0959 16.2782 12.8008C16.2782 13.5058 16.5582 14.1819 17.0566 14.6804C17.5548 15.1789 17.8347 15.8548 17.8347 16.5596C17.8347 17.2643 17.5548 17.9403 17.0566 18.4388M19.24 5.09375C19.1866 5.83625 19.4316 6.59542 20 7.16292C20.4982 7.66141 20.778 8.33732 20.778 9.04208C20.778 9.74684 20.4982 10.4228 20 10.9213C19.5015 11.4198 19.2215 12.0959 19.2215 12.8008C19.2215 13.5058 19.5015 14.1819 20 14.6804C20.4982 15.1789 20.778 15.8548 20.778 16.5596C20.778 17.2643 20.4982 17.9403 20 18.4388M22.1325 5.22542C22.123 5.58389 22.1866 5.94054 22.3194 6.27364C22.4522 6.60674 22.6515 6.90931 22.905 7.16292C23.4032 7.66141 23.683 8.33732 23.683 9.04208C23.683 9.74684 23.4032 10.4228 22.905 10.9213C22.4065 11.4198 22.1265 12.0959 22.1265 12.8008C22.1265 13.5058 22.4065 14.1819 22.905 14.6804C23.4032 15.1789 23.683 15.8548 23.683 16.5596C23.683 17.2643 23.4032 17.9403 22.905 18.4388M4.58331 14.7171L10.0166 20.4904M4.58331 20.4913C4.58331 29.0054 11.4858 35.9079 20 35.9079C28.5141 35.9079 35.4166 29.0054 35.4166 20.4913H4.58331Z" stroke="#DC5F00" stroke-linecap="round" stroke-linejoin="round"/>
</svg>
