<svg width="40" height="41" viewBox="0 0 40 41" fill="none" xmlns="http://www.w3.org/2000/svg">
<path d="M22.9855 6.83302C19.0402 6.80411 14.9855 7.41661 11.4542 8.07598C9.76672 8.39239 7.61671 8.78302 5.75031 9.56427C3.8839 10.3455 2.205 11.5955 1.8589 13.6111C1.68625 14.619 2.10422 15.5174 2.71437 16.1815C3.32453 16.8455 4.11906 17.3533 4.91125 17.8533C5.70343 18.3455 6.49562 18.8299 7.08937 19.3377C7.68234 19.8455 8.04797 20.3455 8.14953 20.9002C8.3214 21.8221 8.0089 22.8299 7.38781 23.9236C6.76437 25.0174 5.84875 26.158 4.97218 27.2986C4.0964 28.4315 3.25343 29.5643 2.79875 30.744C2.34406 31.9315 2.35265 33.283 3.24797 34.3924C4.40578 35.8221 6.08 36.158 7.72609 35.8768C9.37609 35.5955 11.0948 34.7908 12.8448 33.9393C14.5948 33.0877 16.3683 32.1893 18.0011 31.6736C19.6417 31.1658 21.087 31.0486 22.3058 31.6111C22.6183 31.7518 22.8683 32.0643 23.087 32.5799C23.3136 33.0955 23.4777 33.7752 23.6573 34.4627C23.837 35.1502 24.0245 35.8455 24.3839 36.4549C24.7433 37.0643 25.3839 37.6033 26.2198 37.6346C27.8839 37.6971 29.3527 37.0877 30.5792 36.1111C31.8058 35.1268 32.8058 33.7674 33.6573 32.2518C35.3605 29.2127 36.4698 25.494 37.2823 22.619C37.7589 20.908 38.1886 18.8768 38.1808 16.9002C38.173 14.9236 37.7277 12.9549 36.3683 11.5096C33.3995 8.36114 29.1339 7.14395 24.673 6.88692C24.1105 6.85489 23.548 6.8377 22.9855 6.83302ZM22.9777 8.24005C23.5167 8.24005 24.0558 8.26036 24.587 8.29083C28.8527 8.53301 32.712 9.68145 35.337 12.4783C36.3683 13.5721 36.7667 15.1424 36.7745 16.908C36.7823 18.6736 36.3917 20.5955 35.923 22.244C35.1261 25.0877 34.0245 28.7283 32.4308 31.5643C31.6417 32.9783 30.7198 34.1893 29.6964 35.0096C28.6808 35.8299 27.5714 36.2752 26.2667 36.2283C25.9386 36.2127 25.8058 36.1111 25.5948 35.744C25.3839 35.3768 25.1964 34.7752 25.0245 34.1033C24.8448 33.4393 24.673 32.7049 24.3761 32.0252C24.087 31.3455 23.6417 30.6815 22.8995 30.3299C21.2355 29.5643 19.3917 29.7674 17.587 30.3377C15.7745 30.9002 13.962 31.8299 12.2277 32.6736C10.4933 33.5174 8.84484 34.2596 7.49015 34.494C6.13625 34.7283 5.18078 34.5408 4.34093 33.5018C3.75734 32.783 3.76359 32.158 4.11125 31.2518C4.4589 30.3455 5.22375 29.2752 6.08625 28.1502C6.94875 27.033 7.90734 25.8533 8.61047 24.619C9.31359 23.3768 9.79015 22.0408 9.54015 20.6502C9.35265 19.6502 8.72765 18.8846 8.00109 18.2674C7.28 17.6502 6.43547 17.1502 5.65968 16.658C4.88312 16.1736 4.17843 15.6971 3.74797 15.2283C3.31672 14.7596 3.15187 14.3924 3.24484 13.8455C3.47922 12.4783 4.63078 11.5643 6.29328 10.869C7.95422 10.1736 10.0245 9.7752 11.7198 9.45489C15.2042 8.80645 19.1808 8.21348 22.9777 8.24005ZM20.6261 12.5408C18.9073 12.5565 16.6573 13.8065 15.0792 15.5252C13.4542 17.2986 12.6417 19.4236 13.3136 20.9236C14.1652 22.8377 17.1261 24.033 20.2355 24.0721C23.3448 24.119 26.3761 22.994 27.337 21.1268C28.0558 19.7205 27.4308 17.6111 26.0167 15.7986C24.5948 13.9861 22.4464 12.6033 20.7902 12.5408H20.6261ZM20.3448 14.2752C20.8214 14.2752 21.298 14.3768 21.7589 14.619C18.5636 16.2127 16.7511 18.2518 15.5636 20.6268C14.4855 18.4002 17.423 14.2986 20.3448 14.2752Z" fill="#DC5F00"/>
</svg>
