<svg viewBox="0 0 19 14" xmlns="http://www.w3.org/2000/svg">
<path d="M2.25 14C1.7 14 1.22917 13.8042 0.8375 13.4125C0.445833 13.0208 0.25 12.55 0.25 12V10C0.25 9.45 0.445833 8.97917 0.8375 8.5875C1.22917 8.19583 1.7 8 2.25 8H16.25C16.8 8 17.2708 8.19583 17.6625 8.5875C18.0542 8.97917 18.25 9.45 18.25 10V12C18.25 12.55 18.0542 13.0208 17.6625 13.4125C17.2708 13.8042 16.8 14 16.25 14H2.25ZM2.25 6C1.7 6 1.22917 5.80417 0.8375 5.4125C0.445833 5.02083 0.25 4.55 0.25 4V2C0.25 1.45 0.445833 0.979167 0.8375 0.5875C1.22917 0.195833 1.7 0 2.25 0H16.25C16.8 0 17.2708 0.195833 17.6625 0.5875C18.0542 0.979167 18.25 1.45 18.25 2V4C18.25 4.55 18.0542 5.02083 17.6625 5.4125C17.2708 5.80417 16.8 6 16.25 6H2.25Z" />
</svg>
