<svg width="40" height="41" viewBox="0 0 40 41" fill="none" xmlns="http://www.w3.org/2000/svg">
<path d="M21.5625 18.625C21.5625 18.316 21.6541 18.0139 21.8258 17.7569C21.9975 17.5 22.2415 17.2997 22.5271 17.1814C22.8126 17.0632 23.1267 17.0322 23.4298 17.0925C23.7329 17.1528 24.0113 17.3016 24.2299 17.5201C24.4484 17.7387 24.5972 18.0171 24.6575 18.3202C24.7178 18.6233 24.6868 18.9374 24.5686 19.2229C24.4503 19.5085 24.25 19.7525 23.9931 19.9242C23.7361 20.0959 23.434 20.1875 23.125 20.1875C22.7106 20.1875 22.3132 20.0229 22.0201 19.7299C21.7271 19.4368 21.5625 19.0394 21.5625 18.625ZM34.6719 13.625C34.5079 16.7438 33.1545 19.681 30.8902 21.8319C28.6259 23.9829 25.6231 25.1838 22.5 25.1875H17.5C16.9198 25.1875 16.3634 25.418 15.9532 25.8282C15.543 26.2384 15.3125 26.7948 15.3125 27.375C15.3125 27.9552 15.543 28.5116 15.9532 28.9218C16.3634 29.332 16.9198 29.5625 17.5 29.5625H26.25C26.4986 29.5625 26.7371 29.6613 26.9129 29.8371C27.0887 30.0129 27.1875 30.2514 27.1875 30.5C27.1875 30.7486 27.0887 30.9871 26.9129 31.1629C26.7371 31.3387 26.4986 31.4375 26.25 31.4375H18.4375V34.5625H23.75C23.9986 34.5625 24.2371 34.6613 24.4129 34.8371C24.5887 35.0129 24.6875 35.2514 24.6875 35.5C24.6875 35.7486 24.5887 35.9871 24.4129 36.1629C24.2371 36.3387 23.9986 36.4375 23.75 36.4375H15C11.7677 36.4375 8.66774 35.1535 6.38214 32.8679C4.09654 30.5823 2.8125 27.4823 2.8125 24.25C2.8125 21.0177 4.09654 17.9177 6.38214 15.6321C8.66774 13.3465 11.7677 12.0625 15 12.0625H33.125C33.7052 12.0625 34.2616 11.832 34.6718 11.4218C35.082 11.0116 35.3125 10.4552 35.3125 9.875C35.3125 9.29484 35.082 8.73844 34.6718 8.3282C34.2616 7.91797 33.7052 7.6875 33.125 7.6875H20C19.0883 7.6875 18.214 7.32534 17.5693 6.68068C16.9247 6.03602 16.5625 5.16168 16.5625 4.25C16.5625 4.00136 16.6613 3.7629 16.8371 3.58709C17.0129 3.41127 17.2514 3.3125 17.5 3.3125C17.7486 3.3125 17.9871 3.41127 18.1629 3.58709C18.3387 3.7629 18.4375 4.00136 18.4375 4.25C18.4375 4.6644 18.6021 5.06183 18.8951 5.35485C19.1882 5.64788 19.5856 5.8125 20 5.8125H33.125C34.0628 5.81609 34.9705 6.14404 35.694 6.74069C36.4176 7.33734 36.9124 8.16595 37.0946 9.08591C37.2767 10.0059 37.135 10.9605 36.6934 11.7879C36.2518 12.6152 35.5376 13.2643 34.6719 13.625ZM7.91406 31.7313L13.4578 27.7719C13.444 27.64 13.4373 27.5076 13.4375 27.375C13.4376 26.919 13.5147 26.4662 13.6656 26.0359L4.92344 22.0625C4.54573 23.7952 4.62262 25.5961 5.14665 27.2903C5.67068 28.9845 6.62403 30.5144 7.91406 31.7313ZM14.1094 29.6094L9.45156 32.9359C11.1065 33.9997 13.0327 34.5643 15 34.5625H16.5625V31.3266C15.5563 31.0867 14.6792 30.4727 14.1094 29.6094ZM16.5625 23.4234V13.9375H15C12.9688 13.9396 10.9833 14.5406 9.29185 15.6654C7.60043 16.7901 6.27823 18.3886 5.49062 20.2609L14.6875 24.4438C15.2097 23.9417 15.8573 23.5893 16.5625 23.4234ZM32.7703 13.9375H18.4375V23.3125H22.5C25.0719 23.3094 27.5501 22.3467 29.4497 20.6128C31.3492 18.8789 32.5333 16.4985 32.7703 13.9375Z" fill="#DC5F00"/>
</svg>
