<svg width="40" height="41" viewBox="0 0 40 41" fill="none" xmlns="http://www.w3.org/2000/svg">
<path d="M33.3333 22.166C33.3333 27.1693 33.3333 29.6727 31.8683 31.226C28.39 34.9177 11.1933 34.476 8.13163 31.226C6.66663 29.6727 6.66663 27.1693 6.66663 22.166" stroke="#DC5F00" stroke-linecap="round" stroke-linejoin="round"/>
<path d="M20.0662 7.16602C7.42118 7.16602 4.12784 15.1594 3.39784 21.5544C3.08451 24.291 3.89784 24.2477 6.15284 23.0677C9.59951 21.2627 14.1812 20.1093 20.0662 20.1093C25.9428 20.1093 30.4395 21.2593 33.8462 23.0594C36.0962 24.2477 36.9062 24.2893 36.6062 21.5527C35.9062 15.1593 32.7112 7.16602 20.0662 7.16602Z" stroke="#DC5F00" stroke-linecap="round" stroke-linejoin="round"/>
<path d="M11.6602 20.4993C11.6602 16.286 13.1385 8.10602 21.6602 7.16602M25.0002 20.4993C25.0002 17.2677 25.8535 11.726 30.0002 8.83268" stroke="#DC5F00" stroke-linecap="round" stroke-linejoin="round"/>
</svg>
