<svg viewBox="0 0 24 24" xmlns="http://www.w3.org/2000/svg">
<path d="M12.1074 16.2961L9.93689 22.0835H11.8131L13.6876 17.0862L12.1074 16.2961ZM16.0864 3.63544C16.0864 5.09046 14.9058 6.27088 13.451 6.27088C11.996 6.27088 10.8153 5.09046 10.8153 3.63544C10.8153 2.18041 11.9957 1 13.451 1C14.9058 1 16.0864 2.18041 16.0864 3.63544ZM11.2546 8.02792C11.2546 7.06177 10.4635 6.27088 9.49757 6.27088H6.4228C5.45665 6.27088 4.66602 7.06177 4.66602 8.02792V14.1772C4.66602 14.6603 5.06133 15.0556 5.54441 15.0556H10.376C10.859 15.0556 11.2546 14.6603 11.2546 14.1772V8.02792Z" />
<path d="M14.329 10.0764L17.8173 12.1697L18.7218 10.6633L14.329 8.02783H12.5723V15.0555L16.0864 16.8125V22.0834H17.8431V15.7265L14.329 13.9694V10.0764Z" />
</svg>
